<svg width="90" height="54" viewBox="0 0 90 54" fill="none" xmlns="http://www.w3.org/2000/svg">
<path d="M78.263 52.275C77.6194 53.1727 76.3699 53.3787 75.4722 52.7351L60.8434 42.2471C59.9457 41.6035 59.7397 40.3541 60.3833 39.4564C61.0269 38.5587 62.2763 38.3527 63.174 38.9963L76.1775 48.3189L85.5001 35.3155C86.1437 34.4178 87.3931 34.2118 88.2908 34.8554C89.1885 35.499 89.3945 36.7484 88.7509 37.6461L78.263 52.275ZM74.6642 51.435C74.4406 50.0789 74.1762 48.7446 73.8724 47.4329L77.7693 46.5303C78.0925 47.926 78.3735 49.3444 78.6109 50.7843L74.6642 51.435ZM71.5154 39.6513C70.5416 37.0795 69.4036 34.6184 68.1145 32.2781L71.6182 30.3482C72.9992 32.8553 74.2162 35.4881 75.2562 38.2349L71.5154 39.6513ZM63.6959 25.4827C62.0495 23.3189 60.2538 21.2955 58.3228 19.4239L61.1068 16.5517C63.1825 18.5636 65.1116 20.7375 66.8792 23.0606L63.6959 25.4827ZM52.0984 14.247C49.904 12.6881 47.587 11.2925 45.1614 10.0721L46.9593 6.49888C49.5651 7.80999 52.0555 9.30991 54.415 10.9861L52.0984 14.247ZM37.6727 6.9807C35.1344 6.14659 32.5066 5.48662 29.8016 5.01189L30.4931 1.0721C33.3854 1.57973 36.1996 2.28619 38.9215 3.18062L37.6727 6.9807ZM21.7175 4.16318C19.0591 4.06535 16.3431 4.13888 13.5796 4.39325L13.213 0.410088C16.1447 0.14023 19.0324 0.0616502 21.8646 0.165878L21.7175 4.16318ZM5.50756 5.63228C4.18893 5.91497 2.86211 6.23849 1.52816 6.60378L0.471657 2.74584C1.87707 2.36096 3.27658 2.01967 4.6691 1.72115L5.50756 5.63228Z" fill="#F2EADB"/>
</svg>
