<svg width="24" height="156" viewBox="0 0 24 156" fill="none" xmlns="http://www.w3.org/2000/svg">
<path d="M10.9393 155.061C11.5251 155.646 12.4749 155.646 13.0607 155.061L22.6066 145.515C23.1924 144.929 23.1924 143.979 22.6066 143.393C22.0208 142.808 21.0711 142.808 20.4853 143.393L12 151.879L3.51471 143.393C2.92893 142.808 1.97918 142.808 1.39339 143.393C0.807605 143.979 0.807605 144.929 1.39339 145.515L10.9393 155.061ZM10.5 -6.55671e-08L10.5 1.43478L13.5 1.43478L13.5 6.55671e-08L10.5 -6.55671e-08ZM10.5 20.5652L10.5 23.4348L13.5 23.4348L13.5 20.5652L10.5 20.5652ZM10.5 42.5652L10.5 45.4348L13.5 45.4348L13.5 42.5652L10.5 42.5652ZM10.5 64.5652L10.5 67.4348L13.5 67.4348L13.5 64.5652L10.5 64.5652ZM10.5 86.5652L10.5 89.4348L13.5 89.4348L13.5 86.5652L10.5 86.5652ZM10.5 108.565L10.5 111.435L13.5 111.435L13.5 108.565L10.5 108.565ZM10.5 130.565L10.5 133.435L13.5 133.435L13.5 130.565L10.5 130.565ZM10.5 152.565L10.5 154L13.5 154L13.5 152.565L10.5 152.565Z" fill="#FFC21D"/>
</svg>
