<svg width="15" height="13" viewBox="0 0 15 13" fill="none" xmlns="http://www.w3.org/2000/svg">
<path d="M8.64551 1.08887C8.64551 0.536582 8.19779 0.0888672 7.64551 0.0888672C7.09322 0.0888672 6.64551 0.536582 6.64551 1.08887L8.64551 1.08887ZM6.9384 11.72C7.32893 12.1105 7.96209 12.1105 8.35262 11.72L14.7166 5.35606C15.1071 4.96554 15.1071 4.33237 14.7166 3.94185C14.3261 3.55133 13.6929 3.55133 13.3024 3.94185L7.64551 9.5987L1.98865 3.94185C1.59813 3.55133 0.964964 3.55133 0.57444 3.94185C0.183916 4.33237 0.183916 4.96554 0.57444 5.35606L6.9384 11.72ZM6.64551 1.08887L6.64551 11.0129L8.64551 11.0129L8.64551 1.08887L6.64551 1.08887Z" fill="#FF1199"/>
</svg>
