<svg xmlns="http://www.w3.org/2000/svg" fill="none" viewBox="0 0 244 241">
  <mask id="a" fill="#fff">
    <path fill-rule="evenodd" d="m41.989 180.75-6.996 12.117h208.712L139.349 12.1173l-5.927 10.2652L224.856 180.75H41.989Z" clip-rule="evenodd"/>
  </mask>
  <path fill="#fff" fill-rule="evenodd" d="m41.989 180.75-6.996 12.117h208.712L139.349 12.1173l-5.927 10.2652L224.856 180.75H41.989Z" clip-rule="evenodd"/>
  <path fill="#fff" d="m34.993 192.867-.866-.5-.866 1.5h1.732v-1Zm6.996-12.117v-1h-.5774l-.2886.5.866.5Zm201.716 12.117v1h1.732l-.866-1.5-.866.5ZM139.349 12.1173l.866-.5-.866-1.5-.866 1.5.866.5Zm-5.927 10.2652-.866-.5-.288.5.288.5.866-.5ZM224.856 180.75v1h1.732l-.866-1.5-.866.5ZM35.8591 193.367l6.9959-12.117-1.732-1-6.996 12.117 1.7321 1Zm207.8459-1.5H34.993v2h208.712v-2ZM138.483 12.6173 242.839 193.367l1.732-1L140.215 11.6173l-1.732 1Zm-4.194 10.2652 5.926-10.2652-1.732-1-5.927 10.2652 1.733 1Zm-1.733 0L223.99 181.25l1.732-1-91.433-158.3675-1.733 1Zm92.3 156.8675H41.989v2h182.867v-2Z" mask="url(#a)"/>
  <path stroke="#fff" stroke-width="2" d="M17.876 179.75 120.5 2l102.624 177.75H17.876Z"/>
</svg>
